<?xml version="1.0" encoding="UTF-8" standalone="no"?><!DOCTYPE svg PUBLIC "-//W3C//DTD SVG 1.1//EN" "http://www.w3.org/Graphics/SVG/1.1/DTD/svg11.dtd"><svg width="100%" height="100%" viewBox="0 0 142 140" version="1.1" xmlns="http://www.w3.org/2000/svg" xmlns:xlink="http://www.w3.org/1999/xlink" xml:space="preserve" xmlns:serif="http://www.serif.com/" style="fill-rule:evenodd;clip-rule:evenodd;stroke-linecap:round;stroke-linejoin:round;stroke-miterlimit:1.5;"><path d="M85.352,7.966c-9.707,-2.288 -19.813,-2.288 -29.52,-0l0.043,11.97c-5.621,1.633 -10.931,4.19 -15.712,7.566l-9.331,-7.497c-7.841,6.163 -14.142,14.064 -18.406,23.08l9.385,7.43c-2.227,5.412 -3.539,11.158 -3.88,17.001l-11.679,2.622c-0.071,9.972 2.178,19.825 6.568,28.78l11.661,-2.706c2.842,5.117 6.517,9.724 10.872,13.634l-5.232,10.766c7.753,6.273 16.859,10.658 26.597,12.808l5.155,-10.803c5.772,0.968 11.666,0.968 17.438,0l5.155,10.803c9.739,-2.15 18.844,-6.535 26.597,-12.808l-5.232,-10.766c4.355,-3.91 8.03,-8.517 10.873,-13.634l11.66,2.706c4.39,-8.955 6.639,-18.808 6.568,-28.78l-11.679,-2.622c-0.341,-5.843 -1.652,-11.589 -3.88,-17.001l9.385,-7.43c-4.264,-9.016 -10.565,-16.917 -18.406,-23.08l-9.331,7.497c-4.781,-3.376 -10.091,-5.933 -15.712,-7.566l0.043,-11.97Zm-14.76,35.902c14.75,-0 26.724,11.975 26.724,26.724c0,14.75 -11.974,26.724 -26.724,26.724c-14.749,0 -26.724,-11.974 -26.724,-26.724c-0,-14.749 11.975,-26.724 26.724,-26.724Z" style="fill:none;stroke:#fff;stroke-width:12.5px;"/></svg>